<?xml version="1.0" encoding="UTF-8"?>
<svg width="492px" height="500px" viewBox="0 0 492 500" version="1.1" xmlns="http://www.w3.org/2000/svg" xmlns:xlink="http://www.w3.org/1999/xlink">
    <!-- Generator: Sketch 51.1 (57501) - http://www.bohemiancoding.com/sketch -->
    <title>Head</title>
    <desc>Created with Sketch.</desc>
    <defs></defs>
    <g id="Page-1" stroke="none" stroke-width="1" fill="none" fill-rule="evenodd">
        <g id="Yak-Head" transform="translate(-6.000000, 0.000000)">
            <g id="Head" transform="translate(18.000000, 10.000000)">
                <path d="M158.607997,150.464058 C38.1783962,126.504914 22.4666571,59.6156549 55.0133691,9.78700397 C59.1273818,3.49872374 50.3309731,-3.13448325 44.2140859,1.61489296 C-40.93515,66.6866535 0.813958802,156.420678 135.845598,193.938096 C118.577571,210.401716 131.420328,222.752748 158.607997,230.885059 L158.607997,150.464058" id="Fill-176" stroke="#000000" stroke-width="20" fill="#FFFFFF"></path>
                <path d="M419.510472,1.61981436 C413.380731,-3.14403563 404.585296,3.50938615 408.698853,9.81683 C439.99707,57.881149 427.967621,126.477928 305.169818,150.922599 L305.169818,232.892756 C333.261084,224.855422 346.440705,212.13408 327.95676,194.529126 C462.811075,156.897372 504.826192,66.9697231 419.510472,1.61981436" id="Fill-177" stroke="#000000" stroke-width="20" fill="#FFFFFF"></path>
                <path d="M135.052463,268.872745 C86.5460972,271.372801 40.7654173,243.982086 6.02308851,209.55825 C52.3461935,189.860013 113.59955,180.574094 156.600301,207.154351 C145.141571,226.08334 137.601861,246.866765 135.052463,268.872745" id="Fill-178" stroke="#000000" stroke-width="20" fill="#FFFFFF"></path>
                <path d="M311.192906,207.154351 C354.193657,180.574094 415.460574,189.860013 461.770119,209.55825 C427.041351,243.982086 381.260671,271.372801 332.754305,268.872745 C330.204907,246.866765 322.665197,226.08334 311.192906,207.154351" id="Fill-179" stroke="#000000" stroke-width="20" fill="#FFFFFF"></path>
                <path d="M270.411887,158.386017 C244.755463,150.724662 215.991173,150.578097 189.792525,158.386017 C71.7729728,146.913971 119.435732,287.603099 152.630385,383.469968 L307.574028,383.469968 C336.801192,299.141766 390.930957,146.647489 270.411887,158.386017" id="Fill-180" stroke="#000000" stroke-width="20" fill="#FFFFFF"></path>
                <path d="M331.269868,406.042978 C331.269868,442.947879 285.740672,479.839384 229.881211,479.839384 C173.956204,479.839384 128.492555,442.947879 128.492555,406.042978 C128.492555,389.405633 130.576961,375.621552 145.862605,365.400703 L313.939146,365.400703 C329.22479,375.621552 331.269868,389.405633 331.269868,406.042978" id="Fill-181" stroke="#000000" stroke-width="20" fill="#FFFFFF"></path>
                <path d="M188.72344,422.620044 C188.72344,430.942148 183.792589,437.677765 177.681111,437.677765 C171.583523,437.677765 166.638782,430.942148 166.638782,422.620044 C166.638782,414.311855 171.583523,407.562322 177.681111,407.562322 C183.792589,407.562322 188.72344,414.311855 188.72344,422.620044" id="Fill-182" fill="#000000"></path>
                <path d="M299.146729,422.620044 C299.146729,430.942148 294.191215,437.677765 288.09746,437.677765 C282.003704,437.677765 277.062071,430.942148 277.062071,422.620044 C277.062071,414.311855 282.003704,407.562322 288.09746,407.562322 C294.191215,407.562322 299.146729,414.311855 299.146729,422.620044" id="Fill-183" fill="#000000"></path>
                <path d="M369.377236,306.588224 C366.119737,300.939396 361.781146,290.62657 361.781146,275.761234 C361.781146,140.505261 272.67645,106.407897 229.461242,106.407897 C182.817835,106.407897 97.1413368,141.805978 97.1413368,275.761234 C97.1413368,290.62657 92.7885212,300.939396 89.5310219,306.588224 C85.8894507,312.850247 123.073307,330.075454 123.073307,261.880727 L131.181493,261.880727 C131.181493,276.727481 132.333709,291.444163 123.585403,306.588224 C119.929607,312.850247 157.113463,330.075454 157.113463,261.880727 L165.221649,261.880727 C165.221649,276.727481 166.373865,291.444163 157.625559,306.588224 C153.983988,312.850247 191.167844,330.075454 191.167844,261.880727 L199.27603,261.880727 C199.27603,276.727481 200.414021,291.444163 191.665715,306.588224 C188.024144,312.850247 225.208,330.075454 225.208,261.880727 L233.686033,261.880727 C233.686033,330.038291 270.642291,312.44145 267.228318,306.588224 C258.508462,291.481327 259.646453,276.857552 259.646453,261.880727 L267.740414,261.880727 C267.740414,330.038291 304.682447,312.44145 301.282699,306.588224 C292.562843,291.481327 293.700834,276.857552 293.700834,261.880727 L301.78057,261.880727 C301.78057,330.038291 338.736828,312.44145 335.33708,306.588224 C326.617224,291.481327 327.726765,276.857552 327.726765,261.880727 L335.834951,261.880727 C335.834951,330.038291 372.791209,312.44145 369.377236,306.588224" id="Fill-186" fill="#000000"></path>
            </g>
        </g>
    </g>
</svg>